<?xml version="1.0" encoding="UTF-8" standalone="no"?>
<svg
 xmlns="http://www.w3.org/2000/svg"
 width="595.27557"
 height="841.88977"
 id="svg32"
 viewBox="0 0 595.27557 841.88977">
 <defs
 id="defs36">
 <marker
 style="overflow:visible;"
 id="marker4580"
 refX="0.0"
 refY="0.0"
 orient="auto">
 <path
 transform="scale(0.8) rotate(180) translate(12.5,0)"
 style="fill-rule:evenodd;stroke:#b62424;stroke-width:1pt;stroke-opacity:1;fill:#b62424;fill-opacity:1"
 d="M 0.0,0.0 L 5.0,-5.0 L -12.5,0.0 L 5.0,5.0 L 0.0,0.0 z "
 id="path4578"/>
 </marker>
 <marker
 style="overflow:visible;"
 id="marker4165"
 refX="0.0"
 refY="0.0"
 orient="auto">
 <path
 transform="scale(0.8) rotate(180) translate(12.5,0)"
 style="fill-rule:evenodd;stroke:#00f500;stroke-width:1pt;stroke-opacity:1;fill:#00f500;fill-opacity:1"
 d="M 0.0,0.0 L 5.0,-5.0 L -12.5,0.0 L 5.0,5.0 L 0.0,0.0 z "
 id="path4163"/>
 </marker>
 <marker
 style="overflow:visible;"
 id="marker4039"
 refX="0.0"
 refY="0.0"
 orient="auto">
 <path
 transform="scale(0.8) rotate(180) translate(12.5,0)"
 style="fill-rule:evenodd;stroke:#00efa8;stroke-width:1pt;stroke-opacity:1;fill:#00efa8;fill-opacity:1"
 d="M 0.0,0.0 L 5.0,-5.0 L -12.5,0.0 L 5.0,5.0 L 0.0,0.0 z "
 id="path4037"/>
 </marker>
 <marker
 style="overflow:visible"
 id="marker1527"
 refX="0.0"
 refY="0.0"
 orient="auto">
 <path
 transform="scale(-0.8)"
 style="fill-rule:evenodd;stroke:#000000;stroke-width:1pt;stroke-opacity:1;fill:#000000;fill-opacity:1"
 d="M 5.77,0.0 L -2.88,5.0 L -2.88,-5.0 L 5.77,0.0 z "
 id="path1525"/>
 </marker>
 <marker
 style="overflow:visible"
 id="marker1527-4"
 refX="0"
 refY="0"
 orient="auto">
 <path
 transform="scale(-0.8)"
 style="fill:#d4325d;fill-opacity:1;fill-rule:evenodd;stroke:#d4325d;stroke-width:1pt;stroke-opacity:1"
 d="M 5.77,0 -2.88,5 V -5 Z"
 id="path1525-1"/>
 </marker>
 </defs>

 <path
 d="m 317.02,106.1439 c 24.2005,25.471 63.79747,81.48495 78.79727,113.15385 21.9076,46.2532 -71.59167,-9.13655 -41.91207,42.47215 8.3764,14.5658 27.3566,54.356 7.1986,66.8945 -5.7427,3.5722 -9.2001,-0.5012 -11.8519,-7.1172 4.08836,-54.60224 -79.00848,-37.09445 -111.2596,-32.1667 -28.20116,5.0364 -68.3064,11.9486 -82.3572,24.5627 -19.44648,19.26787 -22.21204,27.45321 -37.2844,48.8985 -3.8432,5.5168 -16.8338,28.177 -16.1345,34.6839"
 style="fill:none;stroke:#1b1918;stroke-width:0.5669;stroke-linecap:butt;stroke-linejoin:miter;stroke-dasharray:none"
 id="path22"/>
 <path
 d="m 370.3725,390.8024 c -21.7162,23.2064 46.152,50.006 -39.3159,67.2681 -62.2341,12.5697 -112.1216,61.147 -129.1442,121.4496 -5.9848,21.2003 -19.5951,128.8973 -2.9957,146.7802 l 3.7072,3.2763"
 style="fill:none;stroke:#1b1918;stroke-width:0.5669;stroke-linecap:butt;stroke-linejoin:miter;stroke-dasharray:none"
 id="path24"/>
 <path
 d="m 351.3124,390.2445 c 0,10.753 3.056,15.3403 6.643,24.9738 1.7322,4.6525 0.1817,6.2124 -1.9956,10.681 -3.0203,6.1991 -1.226,5.3813 -3.7528,-1.8128 -4.1437,-11.7981 -6.5469,-12.9189 -4.9411,-26.0733 0.1865,-1.5299 0.3351,-5.3944 1.412,-6.4503 0.7486,-0.7339 1.648,-1.0465 2.6345,-1.3184 z"
 style="fill:#ffffcc;fill-rule:evenodd;stroke:#1b1918;stroke-width:0.5669;stroke-linecap:butt;stroke-linejoin:miter;stroke-dasharray:none"
 id="path26"/>
 <path
 d="m 348.5086,414.8274 c -57.5266,7.4209 -85.8016,16.7429 -138.8874,40.1358 -7.2661,3.2017 -22.4042,11.3014 -29.8236,15.5647"
 style="fill:none;stroke:#1b1918;stroke-width:0.5669;stroke-linecap:butt;stroke-linejoin:miter;stroke-dasharray:none"
 id="path28"/>
 <path
 d="m 331.6941,285.6949 c -11.7805,7.9777 6.9043,57.9487 5.5273,16.3866 -0.2348,-7.0832 -2.3803,-12.4284 -5.5273,-16.3866 z"
 style="fill:#ffffcc;fill-rule:evenodd;stroke:#1b1918;stroke-width:0.5669;stroke-linecap:butt;stroke-linejoin:miter;stroke-dasharray:none"
 id="path30"/>
 <text
 id="text66"
 style="font-style:normal;font-weight:normal;font-size:40px;line-height:1.25;font-family:Shobhika;white-space:pre;fill:#000000;fill-opacity:1;stroke:none;"
 transform="translate(-233.26274,165.22778)"><tspan
 x="460.46289"
 y="240.37993">दाँत </tspan></text>
 <text
 id="text72"
 style="font-style:normal;font-weight:normal;font-size:40px;line-height:1.25;font-family:Shobhika;white-space:pre;fill:#000000;fill-opacity:1;stroke:none;"
 transform="translate(59.935567,123.1109)"><tspan
 x="443.84766"
 y="117.48735">होंठ </tspan></text>
 <path
 style="fill:none;fill-opacity:1;stroke:#d4325d;stroke-width:2.5;stroke-linecap:butt;stroke-linejoin:miter;stroke-miterlimit:4;stroke-dasharray:none;stroke-opacity:1;marker-start:url(#marker1527)"
 d="m 386.15242,311.94961 125.074,-56.95559 v 0"
 id="path1503"/>
 <path
 style="fill:none;fill-opacity:1;stroke:#d4325d;stroke-width:2.5;stroke-linecap:butt;stroke-linejoin:miter;stroke-miterlimit:4;stroke-dasharray:none;stroke-opacity:1;marker-start:url(#marker1527-4)"
 d="M 391.43094,382.703 C 500.81582,297.5511 528.97734,259.43175 528.78749,256.29762"
 id="path1503-6"/>
 <text
 style="font-style:normal;font-weight:normal;font-size:40px;line-height:1.25;font-family:Shobhika;fill:#000000;fill-opacity:1;stroke:none"
 x="236.5025"
 y="110.15185"
 id="text3275"><tspan
 id="tspan3273"
 x="236.5025"
 y="110.15185">कठोर तालु</tspan></text>
 <text
 style="font-style:normal;font-weight:normal;font-size:40px;line-height:1.25;font-family:Shobhika;fill:#000000;fill-opacity:1;stroke:none"
 x="312.6369"
 y="573.43756"
 id="text3279"><tspan
 id="tspan3277"
 x="312.6369"
 y="573.43756">कोमल तालु</tspan></text>
 <path
 style="fill:none;stroke:#00efa8;stroke-width:1px;stroke-linecap:butt;stroke-linejoin:miter;stroke-opacity:1;marker-end:url(#marker4039)"
 d="M 345.03448,542.65986 C 286.71879,432.50801 286.71879,432.50801 286.71879,432.50801"
 id="path4029"/>
 <path
 style="fill:none;stroke:#00f500;stroke-width:1px;stroke-linecap:butt;stroke-linejoin:miter;stroke-opacity:1;marker-end:url(#marker4165)"
 d="m 268.90011,129.59041 1.61988,140.92958"
 id="path4155"/>
 <g
 id="layer1"
 style="display:inline">
 <g
 id="g4558"
 style="fill:#f9e3fc;fill-opacity:1"
 transform="matrix(1.067547,0,0,1.1212509,-6.4123702,-43.808097)">
 <path
 style="fill:#f9e3fc;fill-opacity:1;stroke:#000000;stroke-width:1.03515px;stroke-linecap:butt;stroke-linejoin:miter;stroke-opacity:1"
 d="m 144.95201,473.70134 c 4.50698,-14.97141 9.01415,-29.94349 16.33843,-44.63868 7.32429,-14.69518 17.46523,-29.11244 30.02067,-42.05402 12.55544,-12.94158 27.52397,-24.40616 41.27763,-33.06884 13.75367,-8.66269 26.29047,-14.52232 36.78494,-18.43401 10.49447,-3.91168 18.94453,-5.87487 27.39548,-7.83826 6.86073,-3.44706 13.72171,-6.89424 13.77213,-10.28099 0.0504,-3.38676 -6.71019,-6.71382 -17.13347,-6.15966 -10.42327,0.55415 -24.50791,4.99024 -40.84664,10.81278 -16.33873,5.82253 -34.93045,13.03117 -54.77544,23.37025 -19.84499,10.33908 -40.43873,23.48675 -55.6507,35.68645 -15.21197,12.1997 -24.78953,23.28991 -30.98699,33.54894 -6.19746,10.25903 -9.01438,19.68569 -11.549671,29.66724 -2.535289,9.98154 -4.788828,20.51723 -7.042248,31.05237"
 id="path4548"/>
 <path
 style="fill:#f9e3fc;fill-opacity:1;stroke:none;stroke-width:1px;stroke-linecap:butt;stroke-linejoin:miter;stroke-opacity:1"
 d="m 95.572931,521.60142 c 16.738759,-0.53996 33.477529,-1.07992 50.216289,-1.61988"
 id="path4552"/>
 </g>
 </g>
 <g
 id="layer2"
 style="display:inline"/>
 <text
 style="font-style:normal;font-weight:normal;font-size:40px;line-height:1.25;font-family:Shobhika;fill:#000000;fill-opacity:1;stroke:none"
 x="456.80621"
 y="110.15185"
 id="text4568"><tspan
 id="tspan4566"
 x="456.80621"
 y="110.15185">नासिका </tspan></text>
 <path
 style="fill:none;stroke:#b62424;stroke-width:1px;stroke-linecap:butt;stroke-linejoin:miter;stroke-opacity:1;marker-end:url(#marker4580)"
 d="m 471.38513,126.35065 -66.41509,76.13437"
 id="path4570"/>
 <path
 style="fill:none;stroke:#000000;stroke-width:1px;stroke-linecap:butt;stroke-linejoin:miter;stroke-opacity:1"
 d="m 330.45556,314.25675 -51.83617,68.03497"
 id="path187"/>
 <path
 style="fill:none;stroke:#000000;stroke-width:1px;stroke-linecap:butt;stroke-linejoin:miter;stroke-opacity:1"
 d="m 351.3124,390.2445 -72.69301,-7.95278"
 id="path189"/>
 <text
 style="font-style:normal;font-variant:normal;font-weight:normal;font-stretch:normal;font-size:85.3333px;line-height:1.25;font-family:Shobhika;font-variant-ligatures:normal;font-variant-caps:normal;font-variant-numeric:normal;font-variant-east-asian:normal;fill:#000000;fill-opacity:1;stroke:none;stroke-width:2;stroke-miterlimit:4;stroke-dasharray:none"
 x="40.3783"
 y="799.20911"
 id="text1548"><tspan
 id="tspan1546"
 x="40.3783"
 y="799.20911"
 style="font-style:normal;font-variant:normal;font-weight:normal;font-stretch:normal;font-size:85.3333px;font-family:Shobhika;font-variant-ligatures:normal;font-variant-caps:normal;font-variant-numeric:normal;font-variant-east-asian:normal;fill:#008000"
 dy="0 0 0 0 0 0 0 0 0 0 0 0 0 0 0">ь (мягкий знак) </tspan></text>
</svg>
